<?xml version="1.0" encoding="UTF-8" standalone="no"?>
<svg
   xmlns:dc="http://purl.org/dc/elements/1.1/"
   xmlns:cc="http://creativecommons.org/ns#"
   xmlns:rdf="http://www.w3.org/1999/02/22-rdf-syntax-ns#"
   xmlns:svg="http://www.w3.org/2000/svg"
   xmlns="http://www.w3.org/2000/svg"
   xmlns:sodipodi="http://sodipodi.sourceforge.net/DTD/sodipodi-0.dtd"
   xmlns:inkscape="http://www.inkscape.org/namespaces/inkscape"
   width="85.02388mm"
   height="26.812817mm"
   viewBox="0 0 85.02388 26.812817"
   version="1.1"
   id="svg1701"
   inkscape:version="1.0.2 (1.0.2+r75+1)"
   sodipodi:docname="hold_down_face_1mm.svg">
  <defs
     id="defs1695" />
  <sodipodi:namedview
     id="base"
     pagecolor="#ffffff"
     bordercolor="#666666"
     borderopacity="1.0"
     inkscape:pageopacity="0.0"
     inkscape:pageshadow="2"
     inkscape:zoom="2.8"
     inkscape:cx="110.57882"
     inkscape:cy="53.659102"
     inkscape:document-units="mm"
     inkscape:current-layer="layer1"
     inkscape:document-rotation="0"
     showgrid="false"
     fit-margin-top="0"
     fit-margin-left="0"
     fit-margin-right="0"
     fit-margin-bottom="0"
     showborder="false"
     inkscape:window-width="1514"
     inkscape:window-height="873"
     inkscape:window-x="1946"
     inkscape:window-y="100"
     inkscape:window-maximized="0" />
  <metadata
     id="metadata1698">
    <rdf:RDF>
      <cc:Work
         rdf:about="">
        <dc:format>image/svg+xml</dc:format>
        <dc:type
           rdf:resource="http://purl.org/dc/dcmitype/StillImage" />
        <dc:title></dc:title>
      </cc:Work>
    </rdf:RDF>
  </metadata>
  <g
     inkscape:label="Layer 1"
     inkscape:groupmode="layer"
     id="layer1"
     transform="translate(-10.125628,-11.430479)">
    <path
       id="path1655"
       style="fill:#000000;stroke-width:0.169333"
       d="m 38.169922,11.443359 c -2.478589,0.572995 -4.878219,1.492187 -7.248047,2.419922 -3.858928,1.580842 -7.618702,3.426623 -11.196328,5.567443 -3.218183,2.303391 -6.942232,4.404084 -8.945441,7.993463 -1.7058842,3.563881 0.0773,8.194645 3.561153,9.941728 2.86104,1.597076 6.507719,0.862581 9.064991,-0.987009 1.405364,-1.045605 2.467196,-2.472231 3.868554,-3.528994 3.014783,-2.521209 6.416881,-4.550522 10.070978,-6.160554 5.099235,-2.31039 10.607742,-3.454358 16.149912,-3.676139 4.271829,-0.168838 8.558388,0.266988 12.626193,1.237913 7.792902,1.872006 15.084719,5.853555 20.84857,11.423135 1.281997,1.44379 3.143371,2.746811 5.174967,2.340008 1.410579,-0.164965 3.0095,-1.118697 3.004067,-2.704074 -0.01148,-2.025051 -1.577413,-3.600399 -3.017128,-4.832169 -2.180704,-1.754342 -4.404278,-3.476286 -6.794884,-4.937028 -1.639385,-1.036691 -3.394656,-1.692995 -4.696492,-3.177549 -1.164282,-1.155213 -1.82633,-2.667774 -2.648799,-4.054861 -0.64169,-1.025501 -1.935781,-1.530385 -3.090883,-1.140697 -1.540556,0.419807 -2.95747,1.279153 -4.588127,1.358424 -3.492228,0.373702 -6.968655,-1.313004 -9.200232,-3.955312 -0.795426,-0.93447 -2.216591,-1.621643 -3.359984,-0.865975 -1.823111,1.022835 -3.311088,2.652522 -5.383123,3.216446 C 48.645071,18.10322 44.2723,16.88651 41.767578,13.863281 40.79725,12.810593 39.811637,11.274079 38.169922,11.443359 Z" />
  </g>
</svg>
