<?xml version="1.0" encoding="UTF-8" standalone="no"?>
<svg
   xmlns:dc="http://purl.org/dc/elements/1.1/"
   xmlns:cc="http://creativecommons.org/ns#"
   xmlns:rdf="http://www.w3.org/1999/02/22-rdf-syntax-ns#"
   xmlns:svg="http://www.w3.org/2000/svg"
   xmlns="http://www.w3.org/2000/svg"
   xmlns:sodipodi="http://sodipodi.sourceforge.net/DTD/sodipodi-0.dtd"
   xmlns:inkscape="http://www.inkscape.org/namespaces/inkscape"
   width="19.272007mm"
   height="23.119692mm"
   viewBox="0 0 19.272007 23.119692"
   version="1.1"
   id="svg55"
   inkscape:version="1.0.2 (e86c8708, 2021-01-15)"
   sodipodi:docname="hold_down_nut.svg">
  <defs
     id="defs49" />
  <sodipodi:namedview
     id="base"
     pagecolor="#ffffff"
     bordercolor="#666666"
     borderopacity="1.0"
     inkscape:pageopacity="0.0"
     inkscape:pageshadow="2"
     inkscape:zoom="4.7072241"
     inkscape:cx="10.082922"
     inkscape:cy="45.924579"
     inkscape:document-units="mm"
     inkscape:current-layer="layer1"
     inkscape:document-rotation="0"
     showgrid="false"
     showborder="false"
     fit-margin-top="0"
     fit-margin-left="0"
     fit-margin-right="0"
     fit-margin-bottom="0"
     inkscape:window-width="1427"
     inkscape:window-height="806"
     inkscape:window-x="70"
     inkscape:window-y="112"
     inkscape:window-maximized="0" />
  <metadata
     id="metadata52">
    <rdf:RDF>
      <cc:Work
         rdf:about="">
        <dc:format>image/svg+xml</dc:format>
        <dc:type
           rdf:resource="http://purl.org/dc/dcmitype/StillImage" />
        <dc:title></dc:title>
      </cc:Work>
    </rdf:RDF>
  </metadata>
  <g
     inkscape:label="Layer 1"
     inkscape:groupmode="layer"
     id="layer1"
     transform="translate(-92.08377,-117.66505)">
    <path
       style="fill:#000000;stroke-width:0.140303"
       d="m 100.32733,127.42923 c -1.062482,-0.11536 -2.340816,-0.20784 -2.859725,-0.36876 -2.425413,-0.75222 -1.369467,-0.33766 -3.404815,-1.56218 -0.819994,-0.49333 -1.271697,-1.27075 -1.333055,-1.51943 -0.09645,-0.39082 -0.515,-2.15578 -0.223326,-2.94534 0,0 0.237154,-1.09938 0.934639,-1.67383 0.769757,-0.68861 0.777517,-0.79555 1.656615,-1.06683 0.649998,-0.20058 1.403295,-0.35755 1.403295,-0.35755 0.01916,-0.39041 3.3e-5,-0.24296 3.3e-5,-0.24296 1.707302,-0.009 6.260809,0.002 7.907849,0 l -3e-5,0.24296 c 0,0 1.48659,0.2301 1.84617,0.40338 1.26049,0.42885 1.29228,0.76414 1.75585,1.61164 0.53296,0.97435 0.37058,2.12723 0.37058,2.12723 -2.7e-4,1.34276 -0.45528,1.53384 -0.91521,2.42278 -1.27713,1.43562 -2.54465,2.2425 -4.25388,2.73666 -0.7949,0.22981 -1.51135,0.0983 -2.88499,0.19223 z"
       id="path1650"
       sodipodi:nodetypes="csssccssccccsscsc" />
    <path
       style="fill:#000000;stroke-width:0.15314"
       d="m 102.07877,140.7822 c -1.39278,-0.048 -1.70617,-0.14797 -2.877442,-0.34123 -1.23947,-0.20452 -3.108688,-1.07466 -4.094216,-1.8581 -1.401751,-1.11431 -2.834288,-3.02033 -2.906841,-3.27089 -0.114045,-0.39378 -0.233661,-1.08032 0.111226,-1.87585 0,0 0.280419,-1.10769 1.105152,-1.68648 0.910189,-0.69381 0.919364,-0.80156 1.958844,-1.07489 0.768581,-0.20209 1.659306,-0.36025 1.659306,-0.36025 0.02265,-0.39336 3.9e-5,-0.2448 3.9e-5,-0.2448 2.018779,-0.009 7.403012,0.002 9.350532,0 l -4e-5,0.2448 c 0,0 1.7578,0.23184 2.18299,0.40643 1.49044,0.43209 1.52803,0.76991 2.07617,1.62382 0.6302,0.98171 0.60878,1.32449 0.60878,1.32449 -3.2e-4,1.3529 0.24637,0.74402 -0.0245,1.98085 -0.10341,0.97281 -3.42217,3.45285 -5.337,4.33317 -0.77618,0.35683 -2.73461,0.84076 -3.81297,0.79893 z"
       id="path1650-0"
       sodipodi:nodetypes="csssccssccccsscsc" />
  </g>
</svg>
