<?xml version="1.0" encoding="UTF-8" standalone="no"?>
<svg
   xmlns:dc="http://purl.org/dc/elements/1.1/"
   xmlns:cc="http://creativecommons.org/ns#"
   xmlns:rdf="http://www.w3.org/1999/02/22-rdf-syntax-ns#"
   xmlns:svg="http://www.w3.org/2000/svg"
   xmlns="http://www.w3.org/2000/svg"
   xmlns:sodipodi="http://sodipodi.sourceforge.net/DTD/sodipodi-0.dtd"
   xmlns:inkscape="http://www.inkscape.org/namespaces/inkscape"
   width="82.925339mm"
   height="29.991934mm"
   viewBox="0 0 82.925339 29.991934"
   version="1.1"
   id="svg1701"
   inkscape:version="1.0.2 (1.0.2+r75+1)"
   sodipodi:docname="hold_down_and_nut.svg">
  <defs
     id="defs1695" />
  <sodipodi:namedview
     id="base"
     pagecolor="#ffffff"
     bordercolor="#666666"
     borderopacity="1.0"
     inkscape:pageopacity="0.0"
     inkscape:pageshadow="2"
     inkscape:zoom="7.7551094"
     inkscape:cx="121.59867"
     inkscape:cy="33.97925"
     inkscape:document-units="mm"
     inkscape:current-layer="layer1"
     inkscape:document-rotation="0"
     showgrid="true"
     fit-margin-top="0"
     fit-margin-left="0"
     fit-margin-right="0"
     fit-margin-bottom="0"
     showborder="false"
     inkscape:window-width="1663"
     inkscape:window-height="993"
     inkscape:window-x="1744"
     inkscape:window-y="0"
     inkscape:window-maximized="0">
    <inkscape:grid
       type="xygrid"
       id="grid9"
       originx="4.6158589e-07"
       originy="0.50902482" />
  </sodipodi:namedview>
  <metadata
     id="metadata1698">
    <rdf:RDF>
      <cc:Work
         rdf:about="">
        <dc:format>image/svg+xml</dc:format>
        <dc:type
           rdf:resource="http://purl.org/dc/dcmitype/StillImage" />
        <dc:title></dc:title>
      </cc:Work>
    </rdf:RDF>
  </metadata>
  <g
     inkscape:label="Layer 1"
     inkscape:groupmode="layer"
     id="layer1"
     transform="translate(-11.180725,-7.2064692)">
    <path
       id="path1655"
       style="fill:#000000;stroke-width:0.169333"
       d="m 38.134766,12.501953 c -6.120579,1.704535 -11.867778,4.407292 -17.389789,7.504245 -3.114716,2.258772 -6.646447,4.199789 -8.784039,7.441068 -1.572215,2.688946 -0.660525,6.368858 1.769187,8.236791 1.063901,0.904292 2.624947,1.496437 3.789891,1.514336 2.458385,0.0036 4.979337,-0.992945 6.59268,-2.888449 4.238747,-4.311178 9.589971,-7.393348 15.184507,-9.5958 8.02078,-2.973833 16.875596,-3.518357 25.254045,-1.901786 8.116321,1.587065 15.747957,5.458685 21.932645,10.932201 1.127421,0.893128 1.946851,2.162362 3.227045,2.851144 1.125882,0.579147 2.490088,0.586798 3.576884,-0.08703 0.864346,-0.352624 0.982958,-1.37912 0.63879,-2.144243 -0.793812,-2.082972 -2.817792,-3.294932 -4.458334,-4.657946 -2.071177,-1.517823 -4.116968,-3.102661 -6.424063,-4.24986 -1.926383,-1.010512 -3.620829,-2.4837 -4.70106,-4.388334 -0.594697,-0.887773 -0.934256,-1.983649 -1.714249,-2.72259 -1.263054,-0.711736 -2.529992,0.362953 -3.743036,0.672066 -3.352284,1.236105 -7.237398,0.562671 -10.105214,-1.519118 -1.150761,-0.745763 -2.012283,-1.82725 -3.015031,-2.734979 -0.590376,-0.49653 -1.398336,-0.364102 -1.944972,0.118864 -1.569532,1.05533 -3.000712,2.394243 -4.85614,2.941667 -4.002661,1.443632 -8.792895,0.266488 -11.644201,-2.902328 -0.825183,-0.785913 -1.421999,-1.833178 -2.441406,-2.376953 -0.245532,-0.04281 -0.495403,-0.05238 -0.74414,-0.04297 z" />
    <path
       style="fill:#000000;stroke-width:0.128134"
       d="m 43.581132,8.4328506 c 0.71407,-0.2481 2.26001,-0.18819 2.26001,-0.18819 0.0191,-0.32704 -0.008,-1.0354797 -0.008,-1.0354797 1.6999,-0.007 5.50385,0.002 7.14375,0 l -2.6e-4,1.0583397 c 0,0 1.55772,-0.10574 2.27555,0.14402 0.49813,0.17333 1.05277,0.43602 1.30011,0.90186 0.16664,0.3138697 0.13323,0.7317394 0.0126,1.0660194 -0.63563,1.7621 -1.93835,3.49641 -3.63855,4.28276 -2.15198,0.9953 -4.96264,0.99779 -7.113,-10e-4 -1.68255,-0.7815 -2.9791,-2.50076 -3.59091,-4.25216 -0.12054,-0.34507 -0.14557,-0.7765797 0.0319,-1.0960894 0.25773,-0.46391 0.82541,-0.70591 1.3267,-0.88008 z"
       id="path1650-3"
       sodipodi:nodetypes="ascccaaaaaaaa" />
  </g>
</svg>
