<?xml version="1.0" encoding="UTF-8" standalone="no"?>
<svg
   xmlns:dc="http://purl.org/dc/elements/1.1/"
   xmlns:cc="http://creativecommons.org/ns#"
   xmlns:rdf="http://www.w3.org/1999/02/22-rdf-syntax-ns#"
   xmlns:svg="http://www.w3.org/2000/svg"
   xmlns="http://www.w3.org/2000/svg"
   xmlns:sodipodi="http://sodipodi.sourceforge.net/DTD/sodipodi-0.dtd"
   xmlns:inkscape="http://www.inkscape.org/namespaces/inkscape"
   width="127.49966mm"
   height="61.686172mm"
   viewBox="0 0 127.49966 61.686172"
   version="1.1"
   id="svg1584"
   inkscape:version="1.0.2 (1.0.2+r75+1)"
   sodipodi:docname="tools.svg">
  <defs
     id="defs1578" />
  <sodipodi:namedview
     id="base"
     pagecolor="#ffffff"
     bordercolor="#666666"
     borderopacity="1.0"
     inkscape:pageopacity="0.0"
     inkscape:pageshadow="2"
     inkscape:zoom="0.7"
     inkscape:cx="635.32254"
     inkscape:cy="397.5459"
     inkscape:document-units="mm"
     inkscape:current-layer="layer1"
     inkscape:document-rotation="0"
     showgrid="false"
     inkscape:window-width="1920"
     inkscape:window-height="1043"
     inkscape:window-x="1600"
     inkscape:window-y="0"
     inkscape:window-maximized="1"
     fit-margin-top="0"
     fit-margin-left="0"
     fit-margin-right="0"
     fit-margin-bottom="0" />
  <metadata
     id="metadata1581">
    <rdf:RDF>
      <cc:Work
         rdf:about="">
        <dc:format>image/svg+xml</dc:format>
        <dc:type
           rdf:resource="http://purl.org/dc/dcmitype/StillImage" />
        <dc:title></dc:title>
      </cc:Work>
    </rdf:RDF>
  </metadata>
  <g
     inkscape:label="Layer 1"
     inkscape:groupmode="layer"
     id="layer1"
     transform="translate(-4.0294325,-4.4452028)">
    <path
       style="fill:#000000;stroke-width:0.169333"
       d="m 10.688935,38.075394 c -0.2539,-0.247486 -0.382443,-0.513977 -0.41123,-0.579425 -0.3022322,-0.687137 -0.5431802,-2.43328 -0.4191502,-3.00934 0.4633102,-2.15191 1.7727502,-2.86723 8.5926602,-4.69398 0.63266,-0.16947 1.25251,-0.39294 1.37743,-0.49662 0.12493,-0.10368 0.59789,-0.29366 1.05104,-0.42218 0.45314,-0.12851 1.24299,-0.36041 1.75523,-0.51532 0.51223,-0.15491 1.235,-0.35694 1.60616,-0.44897 1.37297,-0.34041 1.48787,-0.74602 0.92926,-3.28038 -0.53183,-2.41282 -1.15047,-4.43896 -1.90563,-6.24124 -0.78962,-1.88451 -0.85629,-1.90882 -3.11085,-1.13423 -0.54465,0.18712 -1.48558,0.44872 -2.09094,0.58133 -1.74622,0.38251 -3.48389,0.88278 -5.67146,1.63282 -2.6589102,0.91164 -4.3689502,1.05555 -5.4929502,0.46228 -0.41273,-0.21785 -0.78456,-0.49854 -0.82631,-0.62376 -0.146511,-0.155908 -0.02596,0.03348 -0.348078,-0.378218 -0.289831,-0.08788 -1.362959,-2.142477 -1.546542,-2.589012 -0.100801,-0.245182 -0.13274,-0.43061 -0.13274,-0.43061 -0.06146,-0.324653 0.06895,-0.912612 0.2503,-1.26375 0.14086,-0.272734 0.259018,-0.598075 0.46844,-0.854186 0.224389,-0.340224 0.530437,-0.697312 0.530437,-0.697312 0.21238,-0.51315 0.462643,-0.672122 0.462643,-0.672122 0,0 2.99994,-3.0163071 5.4440402,-4.4145151 0.74738,-0.427562 1.289802,-0.779632 1.542142,-0.953998 0.25235,-0.174365 0.910098,-0.457445 0.910098,-0.457445 -0.09437,0.02109 0.415907,-0.242299 1.002287,-0.51935 0.58638,-0.277052 1.620901,-0.702715 2.522616,-1.01461 0.924826,-0.319889 2.224475,-0.598485 2.347527,-0.517229 0,0 0.61189,-0.134522 1.1076,-0.08966 0.4957,0.04486 1.54898,0.131862 2.34061,0.193342 2.10948,0.163825 4.72742,1.054511 7.19667,2.448471 0.99318,0.560678 2.73422,2.007192 3.89467,3.2358141 2.49903,2.64585 3.001023,2.738636 4.03881,3.2116 l 1.99268,0.90815 c 0.406559,0.156102 0.44164,0.35614 3.39368,0.35614 5.14299,0 28.743993,-0.25819 30.198823,-0.33037 0.74507,-0.037 7.679275,-0.11976 15.409335,-0.184 7.73007,-0.0642 14.207067,-0.14556 14.393337,-0.18071 0.72459,-0.13676 4.14114,-0.25388 9.82133,-0.33668 3.25967,-0.0475 6.99347,-0.14031 8.29733,-0.20619 3.70202,-0.18708 5.07246,0.25501 7.51202,2.42328 3.56046,3.16452 3.09591,9.23796 -0.89846,11.74643 -1.79053,1.12445 -6.0834,1.46242 -6.0834,1.46242 -0.31233,0.01503 -24.302327,-0.009 -35.074157,0.16911 -2.42146,0.04 -8.51746,0.11391 -13.546665,0.16436 -23.558806,0.23631 -31.906233,0.39093 -32.895033,0.60931 -2.05732,0.45436 -3.69889,1.66618 -6.14757,4.53815 -2.04815,2.40221 -4.54457,4.05924 -7.17482,4.76239 -2.49078,0.66586 -9.193698,0.688699 -10.28665,0.633828 -2.194291,-0.110163 -1.823904,-0.126425 -2.193213,-0.129864 -0.806375,-0.109279 -2.835827,0.03801 -4.133357,-1.873949 z"
       id="path1657" />
    <path
       style="fill:#000000;stroke-width:0.169333"
       d="m 29.415923,64.571757 c -3.41194,-0.56757 -6.373337,-3.51963 -7.13024,-6.947737 -0.390042,-3.998039 0.460394,-4.90573 0.67268,-5.30884 0.29326,-0.5588 0.81816,-1.397 1.16643,-1.86266 1.406989,-1.647553 1.677617,-1.859909 2.81395,-2.84564 0.76941,-0.6701 1.76753,-1.48507 2.21804,-1.81104 0.45051,-0.32596 1.45603,-1.10925 2.2345,-1.74064 0.77847,-0.63138 1.65524,-1.24907 1.94839,-1.37264 0.29314,-0.12357 1.25689,-0.66714 2.14166,-1.20793 3.07814,-1.88144 8.292843,-4.42878 11.683995,-5.70754 2.564325,-0.96698 2.720997,-1.01112 3.500028,-0.98626 1.560011,0.0498 1.91164,0.25922 3.755993,2.23695 3.829943,4.10692 9.262947,4.25722 13.418257,0.37123 2.418885,-2.26212 4.370275,-2.28548 6.495755,-0.0778 0.36816,0.38239 0.74413,0.64615 0.78065,0.69526 0,0 0.37389,0.394379 0.73969,0.59267 0.42773,0.231862 0.76255,0.499978 0.95891,0.611926 l 0.52077,0.296906 c 0.4713,0.275779 2.26529,0.891068 4.10514,0.882588 1.42704,-0.007 2.62337,-0.33927 4.36027,-1.21256 2.60173,-1.30813 4.76971,-0.66317 6.02302,1.7918 1.07758,2.11076 2.92156,3.94086 4.70219,4.66679 1.27916,0.52149 2.95936,1.41981 3.809999,2.03702 0.51223,0.37167 1.08642,0.7408 1.27597,0.82029 0.5832,0.24459 3.12795,2.03343 4.80357,3.37669 1.71215,1.37254 2.39212,2.25693 2.71569,3.53211 0.11264,0.4439 0.26491,0.9214 0.33837,1.0611 0.0742,0.14119 0.031,0.54549 -0.0974,0.91029 -0.12701,0.36096 -0.23092,0.8396 -0.23092,1.06365 0,0.22975 -0.12755,0.45631 -0.29256,0.51962 -0.1609,0.0617 -0.53645,0.35616 -0.83455,0.65426 -0.59537,0.59538 -2.6702,1.762847 -3.13292,1.762847 -0.447,0 -2.71058,-0.849017 -3.21678,-1.206537 -0.24721,-0.1746 -0.49139,-0.31746 -0.54263,-0.31746 -0.0512,0 -0.53477,-0.42754 -1.07452,-0.95009 -4.381389,-4.24173 -11.718179,-8.21156 -18.422709,-9.96827 -9.39267,-2.46105 -20.190845,-1.66696 -28.912513,2.1262 -5.275382,2.29432 -12.330109,7.460784 -13.402635,9.02875 -0.367715,0.537577 -0.785588,0.921997 -0.785588,0.921997 -0.07982,0.0937 -0.475655,0.6633 -0.909047,1.07977 -0.855901,0.82248 -1.367115,1.17317 -2.747733,1.74119 -2.35028,0.96696 -3.740532,1.02626 -5.451222,0.74169 z"
       id="path1655"
       sodipodi:nodetypes="cccccssssssssssssccsssssssccssssssssssssscc" />
    <path
       style="fill:#000000;stroke-width:0.169333"
       d="m 68.433288,66.108089 c -0.12804,0.0259 -0.62708,-0.0382 -1.26873,-0.14072 -3.118924,-0.49825 -4.85277,-1.90885 -6.100583,-3.2012 -0.802439,-0.83108 -1.32373,-1.71783 -1.396999,-2.02115 -0.115163,-0.47675 -0.44797,-2.1265 0.0395,-2.97781 0.22654,-0.56054 0.617195,-1.22922 0.976909,-1.45473 0.418175,-0.33679 1.694491,-1.36768 2.744246,-1.69859 0.77618,-0.24466 1.499845,-0.56789 1.514501,-1.06907 0.01394,-0.47659 0.767209,-0.46378 0.767209,-0.46378 2.038737,-0.0105 3.743777,-0.006 5.710547,0.0512 0,0 0.56031,-0.034 0.55484,0.243 0.13651,0.50182 1.95459,0.86777 2.85268,1.17073 1.50519,0.52313 2.70459,1.79016 3.1424,2.87852 0.16324,0.4058 0.30374,0.64472 0.33118,0.91755 0.11711,1.1644 -0.082,2.14379 -0.42098,2.7994 -0.90559,1.75121 -3.76621,3.89777 -5.80724,4.50057 -0.9492,0.28033 -1.24761,0.57523 -3.63945,0.4661 z"
       id="path1650"
       sodipodi:nodetypes="csssccssccccsscscc" />
  </g>
</svg>
