<?xml version="1.0" encoding="UTF-8" standalone="no"?>
<svg
   xmlns:dc="http://purl.org/dc/elements/1.1/"
   xmlns:cc="http://creativecommons.org/ns#"
   xmlns:rdf="http://www.w3.org/1999/02/22-rdf-syntax-ns#"
   xmlns:svg="http://www.w3.org/2000/svg"
   xmlns="http://www.w3.org/2000/svg"
   xmlns:sodipodi="http://sodipodi.sourceforge.net/DTD/sodipodi-0.dtd"
   xmlns:inkscape="http://www.inkscape.org/namespaces/inkscape"
   width="104.77486mm"
   height="15.157976mm"
   viewBox="0 0 104.77488 15.157976"
   version="1.1"
   id="svg150"
   inkscape:version="1.0.2 (1.0.2+r75+1)"
   sodipodi:docname="wrench_1mm.svg">
  <defs
     id="defs144" />
  <sodipodi:namedview
     id="base"
     pagecolor="#ffffff"
     bordercolor="#666666"
     borderopacity="1.0"
     inkscape:pageopacity="0.0"
     inkscape:pageshadow="2"
     inkscape:zoom="2"
     inkscape:cx="168.26203"
     inkscape:cy="85.876153"
     inkscape:document-units="mm"
     inkscape:current-layer="layer1"
     inkscape:document-rotation="0"
     showgrid="false"
     fit-margin-top="0"
     fit-margin-left="0"
     fit-margin-right="0"
     fit-margin-bottom="0"
     inkscape:showpageshadow="false"
     showborder="false"
     inkscape:window-width="1514"
     inkscape:window-height="873"
     inkscape:window-x="1767"
     inkscape:window-y="16"
     inkscape:window-maximized="0" />
  <metadata
     id="metadata147">
    <rdf:RDF>
      <cc:Work
         rdf:about="">
        <dc:format>image/svg+xml</dc:format>
        <dc:type
           rdf:resource="http://purl.org/dc/dcmitype/StillImage" />
        <dc:title></dc:title>
      </cc:Work>
    </rdf:RDF>
  </metadata>
  <g
     inkscape:label="Layer 1"
     inkscape:groupmode="layer"
     id="layer1"
     transform="translate(-35.518757,-90.938737)">
    <path
       id="rect152"
       style="fill:#000000;fill-opacity:1;stroke:#000000;stroke-width:0.0755275"
       d="M 111.74219,91.064453 C 86.878935,91.090933 62.015622,90.96231 37.152344,90.9778 c -1.756592,2.519977 -1.575838,5.874101 -1.595818,8.800413 0.08178,2.068337 0.446068,4.411807 1.545036,6.199587 26.688698,0.18849 54.141863,-0.0121 81.093748,0 0.0108,-0.75334 1.11392,-1.06775 1.11392,-1.06775 3.00165,0.0328 6.45846,0.0459 9.44779,-0.13243 1.79327,-0.63415 3.34282,-1.84965 5.17462,-2.36548 1.30575,-0.15106 2.6237,0.0405 3.93555,-0.0391 h 2.38867 v -7.804687 c -2.22022,-0.0068 -4.44527,0.02436 -6.66211,-0.05664 -1.89376,-0.783254 -3.58707,-2.169108 -5.65898,-2.44336 l -8.84299,-0.03014 c -0.16026,-0.332167 -0.55478,-0.903635 -0.9472,-1.060413 -2.13411,0.01628 -4.26823,0.07036 -6.40234,0.08665 z"
       sodipodi:nodetypes="sccccccccccccccss" />
  </g>
</svg>
