<?xml version="1.0" encoding="UTF-8" standalone="no"?>
<svg
   xmlns:dc="http://purl.org/dc/elements/1.1/"
   xmlns:cc="http://creativecommons.org/ns#"
   xmlns:rdf="http://www.w3.org/1999/02/22-rdf-syntax-ns#"
   xmlns:svg="http://www.w3.org/2000/svg"
   xmlns="http://www.w3.org/2000/svg"
   xmlns:sodipodi="http://sodipodi.sourceforge.net/DTD/sodipodi-0.dtd"
   xmlns:inkscape="http://www.inkscape.org/namespaces/inkscape"
   width="86mm"
   height="27.5mm"
   viewBox="0 0 86 27.5"
   version="1.1"
   id="svg1701"
   inkscape:version="1.0.2 (1.0.2+r75+1)"
   sodipodi:docname="hold_down_face.svg">
  <defs
     id="defs1695" />
  <sodipodi:namedview
     id="base"
     pagecolor="#ffffff"
     bordercolor="#666666"
     borderopacity="1.0"
     inkscape:pageopacity="0.0"
     inkscape:pageshadow="2"
     inkscape:zoom="2.8"
     inkscape:cx="112.58334"
     inkscape:cy="55.671769"
     inkscape:document-units="mm"
     inkscape:current-layer="layer1"
     inkscape:document-rotation="0"
     showgrid="false"
     fit-margin-top="0"
     fit-margin-left="0"
     fit-margin-right="0"
     fit-margin-bottom="0"
     showborder="false"
     inkscape:window-width="1514"
     inkscape:window-height="873"
     inkscape:window-x="1946"
     inkscape:window-y="100"
     inkscape:window-maximized="0" />
  <metadata
     id="metadata1698">
    <rdf:RDF>
      <cc:Work
         rdf:about="">
        <dc:format>image/svg+xml</dc:format>
        <dc:type
           rdf:resource="http://purl.org/dc/dcmitype/StillImage" />
        <dc:title></dc:title>
      </cc:Work>
    </rdf:RDF>
  </metadata>
  <g
     inkscape:label="Layer 1"
     inkscape:groupmode="layer"
     id="layer1"
     transform="translate(-9.595265,-10.897961)">
    <path
       id="path1655"
       style="fill:#000000;stroke-width:0.168113"
       d="m 38.116638,10.913848 c -4.197947,0.991174 -8.199329,2.673617 -12.098503,4.479312 -3.022247,1.451716 -6.02688,2.980098 -8.735845,4.958498 -2.758221,1.882023 -5.652639,3.936943 -7.146174,6.999486 -1.6296686,3.917234 0.582272,8.796692 4.506694,10.399301 3.56683,1.538603 7.864528,0.188872 10.472302,-2.505702 4.074132,-4.165591 9.263931,-7.139396 14.702349,-9.221117 7.438562,-2.742592 15.571496,-3.325706 23.372883,-1.997203 5.688894,0.960053 11.387571,3.146866 16.352762,6.269519 2.877584,1.809276 5.528545,3.957741 7.925777,6.350017 1.396587,1.262997 3.39646,1.96723 5.262643,1.414769 1.604152,-0.344418 3.128026,-1.787296 2.824975,-3.519111 -0.309562,-2.471856 -2.42643,-4.153268 -4.283265,-5.590078 -2.602787,-2.072478 -5.36693,-3.949183 -8.312768,-5.511174 -1.687387,-0.933273 -2.942874,-2.470505 -3.843337,-4.192004 -0.560775,-1.074611 -1.207298,-2.296856 -2.482147,-2.651231 -1.636975,-0.555178 -3.199795,0.522735 -4.72335,0.958799 -3.773658,1.214887 -8.012215,-0.45897 -10.477244,-3.398562 -0.971825,-1.171099 -2.852928,-1.834724 -4.179804,-0.832015 -1.943072,1.142199 -3.618402,2.890118 -5.950627,3.235853 -3.529505,0.754618 -7.397972,-0.675486 -9.568954,-3.525787 -0.917045,-1.07316 -2.048851,-2.290998 -3.618367,-2.12157 z" />
  </g>
</svg>
