<?xml version="1.0" encoding="UTF-8" standalone="no"?>
<svg
   xmlns:dc="http://purl.org/dc/elements/1.1/"
   xmlns:cc="http://creativecommons.org/ns#"
   xmlns:rdf="http://www.w3.org/1999/02/22-rdf-syntax-ns#"
   xmlns:svg="http://www.w3.org/2000/svg"
   xmlns="http://www.w3.org/2000/svg"
   xmlns:sodipodi="http://sodipodi.sourceforge.net/DTD/sodipodi-0.dtd"
   xmlns:inkscape="http://www.inkscape.org/namespaces/inkscape"
   width="86.095886mm"
   height="33.184441mm"
   viewBox="0 0 86.095888 33.18444"
   version="1.1"
   id="svg1701"
   inkscape:version="1.0.2 (1.0.2+r75+1)"
   sodipodi:docname="hold_down_and_nut_face.svg">
  <defs
     id="defs1695" />
  <sodipodi:namedview
     id="base"
     pagecolor="#ffffff"
     bordercolor="#666666"
     borderopacity="1.0"
     inkscape:pageopacity="0.0"
     inkscape:pageshadow="2"
     inkscape:zoom="13.19373"
     inkscape:cx="153.69789"
     inkscape:cy="19.702515"
     inkscape:document-units="mm"
     inkscape:current-layer="layer1"
     inkscape:document-rotation="0"
     showgrid="true"
     fit-margin-top="0"
     fit-margin-left="0"
     fit-margin-right="0"
     fit-margin-bottom="0"
     showborder="false"
     inkscape:window-width="1920"
     inkscape:window-height="1043"
     inkscape:window-x="1600"
     inkscape:window-y="0"
     inkscape:window-maximized="1">
    <inkscape:grid
       type="xygrid"
       id="grid9"
       originx="1.5854592"
       originy="2.132389" />
  </sodipodi:namedview>
  <metadata
     id="metadata1698">
    <rdf:RDF>
      <cc:Work
         rdf:about="">
        <dc:format>image/svg+xml</dc:format>
        <dc:type
           rdf:resource="http://purl.org/dc/dcmitype/StillImage" />
        <dc:title></dc:title>
      </cc:Work>
    </rdf:RDF>
  </metadata>
  <g
     inkscape:label="Layer 1"
     inkscape:groupmode="layer"
     id="layer1"
     transform="translate(-9.5952649,-5.5831049)">
    <path
       id="path1655"
       style="fill:#000000;stroke-width:0.169333"
       d="m 38.148438,10.914062 c -4.202628,1.004494 -8.208471,2.709548 -12.111992,4.539511 -3.025617,1.471226 -6.0336,3.020149 -8.745585,5.025138 -2.761297,1.907316 -5.658942,3.989853 -7.154142,7.093555 -1.6314856,3.96988 0.582921,8.914915 4.511719,10.539062 3.570807,1.559281 7.873296,0.19141 10.483978,-2.539377 4.078674,-4.221575 9.27426,-7.235346 14.718741,-9.345044 7.446856,-2.779451 15.588858,-3.370402 23.398943,-2.024044 5.695237,0.972955 11.400267,3.189158 16.370994,6.353778 2.880793,1.833591 5.534709,4.010931 7.934614,6.435357 1.398144,1.279971 3.400247,1.993669 5.268511,1.433783 1.60594,-0.349047 3.131513,-1.811316 2.828125,-3.566406 -0.309908,-2.505076 -2.429136,-4.209086 -4.288041,-5.665205 -2.605689,-2.100331 -5.372914,-4.002258 -8.322036,-5.585242 -1.689269,-0.945815 -2.946156,-2.503707 -3.847623,-4.248342 -0.5614,-1.089053 -1.208644,-2.327725 -2.484914,-2.686862 -1.6388,-0.562639 -3.203363,0.52976 -4.728616,0.971685 -3.777866,1.231214 -8.021149,-0.465139 -10.488926,-3.444237 -0.972908,-1.186838 -2.856109,-1.859382 -4.184464,-0.843197 -1.945239,1.157549 -3.622437,2.92896 -5.957262,3.279341 -3.53344,0.76476 -7.40622,-0.684564 -9.579623,-3.573172 -0.918067,-1.087582 -2.051135,-2.321788 -3.622401,-2.150082 z" />
    <path
       id="path1650-3"
       style="fill:#000000;stroke-width:0.128134"
       d="m 44.994141,5.6015625 c -0.556835,-0.00103 -0.764215,0.6245495 -0.720703,1.09375 -1.656531,0.1021264 -3.573391,1.1143957 -3.72461,2.9375 0.08846,2.2289815 1.529608,4.1763445 3.169922,5.5722655 3.018837,2.260034 7.417277,2.365361 10.636719,0.46875 2.017172,-1.300213 3.562208,-3.462033 3.898425,-5.8538293 C 58.167904,8.1190768 56.428632,7.142945 54.945365,6.788788 54.508503,6.740675 54.174049,6.704635 54.265625,6.1777344 c -0.22551,-0.8872236 -1.300649,-0.493982 -1.951953,-0.578125 -2.439818,0.00131 -4.879839,-0.00262 -7.319531,0.00195 z" />
  </g>
</svg>
