<?xml version="1.0" encoding="UTF-8" standalone="no"?>
<svg
   xmlns:dc="http://purl.org/dc/elements/1.1/"
   xmlns:cc="http://creativecommons.org/ns#"
   xmlns:rdf="http://www.w3.org/1999/02/22-rdf-syntax-ns#"
   xmlns:svg="http://www.w3.org/2000/svg"
   xmlns="http://www.w3.org/2000/svg"
   xmlns:sodipodi="http://sodipodi.sourceforge.net/DTD/sodipodi-0.dtd"
   xmlns:inkscape="http://www.inkscape.org/namespaces/inkscape"
   width="14.539845mm"
   height="8.2029953mm"
   viewBox="0 0 14.539845 8.2029958"
   version="1.1"
   id="svg55"
   inkscape:version="1.0.2 (1.0.2+r75+1)"
   sodipodi:docname="hold_down_nut.svg">
  <defs
     id="defs49" />
  <sodipodi:namedview
     id="base"
     pagecolor="#ffffff"
     bordercolor="#666666"
     borderopacity="1.0"
     inkscape:pageopacity="0.0"
     inkscape:pageshadow="2"
     inkscape:zoom="16"
     inkscape:cx="38.453674"
     inkscape:cy="21.117788"
     inkscape:document-units="mm"
     inkscape:current-layer="layer1"
     inkscape:document-rotation="0"
     showgrid="true"
     showborder="false"
     fit-margin-top="0"
     fit-margin-left="0"
     fit-margin-right="0"
     fit-margin-bottom="0"
     inkscape:window-width="1850"
     inkscape:window-height="995"
     inkscape:window-x="1669"
     inkscape:window-y="46"
     inkscape:window-maximized="0">
    <inkscape:grid
       type="xygrid"
       id="grid69"
       originx="-50.268397"
       originy="-0.79103157" />
  </sodipodi:namedview>
  <metadata
     id="metadata52">
    <rdf:RDF>
      <cc:Work
         rdf:about="">
        <dc:format>image/svg+xml</dc:format>
        <dc:type
           rdf:resource="http://purl.org/dc/dcmitype/StillImage" />
        <dc:title></dc:title>
      </cc:Work>
    </rdf:RDF>
  </metadata>
  <g
     inkscape:label="Layer 1"
     inkscape:groupmode="layer"
     id="layer1"
     transform="translate(-106.51585,-106.38205)">
    <path
       style="fill:#000000;stroke-width:0.128134"
       d="m 107.97037,107.60843 c 0.71407,-0.2481 2.26001,-0.18819 2.26001,-0.18819 0.0191,-0.32704 -0.008,-1.03548 -0.008,-1.03548 1.6999,-0.007 5.50385,0.002 7.14375,0 l -2.6e-4,1.05834 c 0,0 1.55772,-0.10574 2.27555,0.14402 0.49813,0.17333 1.05564,0.43451 1.30011,0.90186 0.24637,0.47099 0.19856,1.10181 -6.5e-4,1.59461 -0.652,1.61282 -2.02392,3.07455 -3.6253,3.75417 -2.18258,0.92628 -4.93275,0.93074 -7.113,-0.001 -1.5758,-0.67342 -2.91292,-2.12562 -3.5537,-3.71497 -0.20357,-0.50494 -0.26197,-1.15315 -0.005,-1.63328 0.25018,-0.46801 0.82541,-0.70591 1.3267,-0.88008 z"
       id="path1650-3"
       sodipodi:nodetypes="ascccaaaaaaaaa" />
  </g>
</svg>
