<?xml version="1.0" encoding="UTF-8" standalone="no"?>
<svg
   xmlns:dc="http://purl.org/dc/elements/1.1/"
   xmlns:cc="http://creativecommons.org/ns#"
   xmlns:rdf="http://www.w3.org/1999/02/22-rdf-syntax-ns#"
   xmlns:svg="http://www.w3.org/2000/svg"
   xmlns="http://www.w3.org/2000/svg"
   xmlns:sodipodi="http://sodipodi.sourceforge.net/DTD/sodipodi-0.dtd"
   xmlns:inkscape="http://www.inkscape.org/namespaces/inkscape"
   width="125mm"
   height="125mm"
   viewBox="0 0 125 125"
   version="1.1"
   id="svg8"
   inkscape:version="1.0.2 (1.0.2+r75+1)"
   sodipodi:docname="tray1.svg">
  <defs
     id="defs2" />
  <sodipodi:namedview
     id="base"
     pagecolor="#ffffff"
     bordercolor="#666666"
     borderopacity="1.0"
     inkscape:pageopacity="0.0"
     inkscape:pageshadow="2"
     inkscape:zoom="1.979899"
     inkscape:cx="199.65726"
     inkscape:cy="169.89824"
     inkscape:document-units="mm"
     inkscape:current-layer="layer1"
     inkscape:document-rotation="0"
     showgrid="false"
     inkscape:window-width="1920"
     inkscape:window-height="1043"
     inkscape:window-x="1600"
     inkscape:window-y="0"
     inkscape:window-maximized="1"
     fit-margin-top="0"
     fit-margin-left="0"
     fit-margin-right="0"
     fit-margin-bottom="0" />
  <metadata
     id="metadata5">
    <rdf:RDF>
      <cc:Work
         rdf:about="">
        <dc:format>image/svg+xml</dc:format>
        <dc:type
           rdf:resource="http://purl.org/dc/dcmitype/StillImage" />
        <dc:title></dc:title>
      </cc:Work>
    </rdf:RDF>
  </metadata>
  <g
     inkscape:label="Layer 1"
     inkscape:groupmode="layer"
     id="layer1">
    <path
       id="path1655"
       style="fill:#000000;stroke-width:0.169333"
       d="m 38.358307,7.0902352 c -2.47859,0.5730003 -4.87822,1.4921897 -7.24804,2.4199191 -3.85893,1.5808497 -7.61871,3.4266297 -11.19633,5.5674497 -3.218191,2.303389 -6.942231,4.404079 -8.945441,7.993459 -1.7058894,3.56388 0.0773,8.19465 3.56115,9.94173 2.86104,1.59707 6.507721,0.86258 9.064991,-0.98701 1.40536,-1.04561 2.4672,-2.47223 3.86855,-3.52899 3.01479,-2.52121 6.41689,-4.55053 10.07098,-6.16056 5.09924,-2.31039 10.60774,-3.45436 16.14991,-3.67614 4.27183,-0.16884 8.55839,0.26699 12.6262,1.23792 7.7929,1.872 15.08472,5.85355 20.848574,11.42313 1.28199,1.44379 3.14337,2.74681 5.17496,2.34001 1.41058,-0.16497 3.0095,-1.1187 3.00406,-2.70408 -0.0115,-2.02505 -1.57741,-3.60039 -3.01712,-4.83216 -2.1807,-1.75435 -4.40427,-3.47629 -6.79488,-4.93703 -1.63939,-1.03669 -3.394664,-1.693 -4.696494,-3.17755 -1.16428,-1.155209 -1.82633,-2.667779 -2.6488,-4.054859 -0.64169,-1.0255 -1.93578,-1.53039 -3.09088,-1.1407 -1.54056,0.41981 -2.95747,1.27915 -4.58813,1.35842 -3.49223,0.37371 -6.96866,-1.313 -9.20023,-3.95531 -0.79543,-0.9344694 -2.21659,-1.6216391 -3.35999,-0.8659694 -1.82311,1.0228294 -3.31109,2.6525194 -5.38312,3.2164394 -3.72477,1.18174 -8.09754,-0.035 -10.60226,-3.0581997 -0.97033,-1.0526794 -1.95594,-2.5891991 -3.59766,-2.4199191 z" />
    <path
       id="path68"
       style="fill:#000000;stroke-width:0.169333"
       d="m 38.358307,34.873906 c -2.47859,0.573 -4.87822,1.49219 -7.24804,2.41992 -3.85893,1.58085 -7.61871,3.42663 -11.19633,5.56745 -3.218191,2.30339 -6.942231,4.40408 -8.945441,7.99346 -1.7058894,3.56388 0.0773,8.19465 3.56115,9.94173 2.86104,1.59707 6.507721,0.86258 9.064991,-0.98701 1.40536,-1.04561 2.4672,-2.47223 3.86855,-3.52899 3.01479,-2.52121 6.41689,-4.55053 10.07098,-6.16056 5.09924,-2.31039 10.60774,-3.45436 16.14991,-3.67614 4.27183,-0.16884 8.55839,0.26699 12.6262,1.23792 7.7929,1.872 15.08472,5.85355 20.84857,11.42313 1.28199,1.44379 3.14337,2.74681 5.17496,2.34001 1.41058,-0.16497 3.00951,-1.1187 3.00407,-2.70408 -0.0115,-2.02505 -1.57741,-3.60039 -3.01713,-4.83216 -2.1807,-1.75435 -4.40427,-3.47629 -6.79488,-4.93703 -1.63939,-1.03669 -3.39466,-1.693 -4.69649,-3.17755 -1.16428,-1.15521 -1.82633,-2.66778 -2.6488,-4.05486 -0.64169,-1.0255 -1.93578,-1.53039 -3.09088,-1.1407 -1.54056,0.41981 -2.95747,1.27915 -4.58813,1.35842 -3.49223,0.37371 -6.96866,-1.313 -9.20023,-3.95531 -0.79543,-0.93447 -2.21659,-1.62164 -3.35999,-0.86597 -1.82311,1.02283 -3.31109,2.65252 -5.38312,3.21644 -3.72477,1.18174 -8.09754,-0.035 -10.60226,-3.0582 -0.97033,-1.05268 -1.95594,-2.5892 -3.59766,-2.41992 z" />
    <path
       id="path70"
       style="fill:#000000;stroke-width:0.169333"
       d="m 38.358307,62.657572 c -2.47859,0.573 -4.87822,1.49219 -7.24804,2.41992 -3.85893,1.58085 -7.61871,3.42663 -11.19633,5.56745 -3.218191,2.30339 -6.942231,4.40408 -8.945441,7.99346 -1.7058894,3.56388 0.0773,8.19465 3.56115,9.94173 2.86104,1.59707 6.507721,0.86258 9.064991,-0.98701 1.40536,-1.04561 2.4672,-2.47223 3.86855,-3.52899 3.01479,-2.52121 6.41689,-4.55053 10.07098,-6.16056 5.09924,-2.31039 10.60774,-3.45436 16.14991,-3.67614 4.27183,-0.16884 8.55839,0.26699 12.6262,1.23792 7.7929,1.872 15.08472,5.85355 20.84857,11.42313 1.28199,1.44379 3.14337,2.74681 5.17496,2.34001 1.41058,-0.16497 3.00951,-1.1187 3.00407,-2.70408 -0.0115,-2.02505 -1.57741,-3.60039 -3.01713,-4.83216 -2.1807,-1.75435 -4.40427,-3.47629 -6.79488,-4.93703 -1.63939,-1.03669 -3.39466,-1.693 -4.69649,-3.17755 -1.16428,-1.15521 -1.82633,-2.66778 -2.6488,-4.05486 -0.64169,-1.0255 -1.93578,-1.53039 -3.09088,-1.1407 -1.54056,0.41981 -2.95747,1.27915 -4.58813,1.35842 -3.49223,0.37371 -6.96866,-1.313 -9.20023,-3.95531 -0.79543,-0.93447 -2.21659,-1.62164 -3.35999,-0.86597 -1.82311,1.02283 -3.31109,2.65252 -5.38312,3.21644 -3.72477,1.18174 -8.09754,-0.035 -10.60226,-3.0582 -0.97033,-1.05268 -1.95594,-2.5892 -3.59766,-2.41992 z" />
    <path
       id="path72"
       style="fill:#000000;stroke-width:0.169333"
       d="m 38.358306,90.441246 c -2.47859,0.573 -4.87822,1.49219 -7.24804,2.41992 -3.85893,1.580847 -7.61871,3.426627 -11.19633,5.567443 -3.21819,2.303381 -6.94223,4.404071 -8.94544,7.993451 -1.7058894,3.56387 0.0773,8.19464 3.56115,9.94172 2.86104,1.59707 6.50772,0.86258 9.06499,-0.98701 1.40536,-1.04561 2.4672,-2.47223 3.86855,-3.52899 3.01479,-2.52121 6.41689,-4.55053 10.07098,-6.16055 5.09924,-2.31039 10.60774,-3.45436 16.14991,-3.67614 4.27183,-0.16884 8.55839,0.26699 12.6262,1.23792 7.7929,1.872 15.08472,5.85354 20.84857,11.42312 1.28199,1.44379 3.14337,2.74681 5.17496,2.34001 1.41058,-0.16497 3.00951,-1.1187 3.00407,-2.70408 -0.0115,-2.02505 -1.57741,-3.60039 -3.01713,-4.83216 -2.1807,-1.75435 -4.40427,-3.47628 -6.79488,-4.93702 -1.63939,-1.03669 -3.39466,-1.693 -4.69649,-3.17755 -1.16428,-1.15521 -1.82633,-2.667771 -2.6488,-4.054847 -0.64169,-1.0255 -1.93578,-1.53039 -3.09088,-1.1407 -1.54056,0.41981 -2.95747,1.279152 -4.58813,1.358422 -3.49223,0.373707 -6.96866,-1.313002 -9.20023,-3.955309 -0.79543,-0.93447 -2.21659,-1.62164 -3.35999,-0.86597 -1.82311,1.02283 -3.31109,2.652517 -5.38312,3.216437 -3.72477,1.18174 -8.09754,-0.035 -10.60226,-3.058197 -0.97033,-1.05268 -1.95594,-2.5892 -3.59766,-2.41992 z" />
    <path
       id="path1650-3"
       style="fill:#000000;stroke-width:0.127072"
       d="m 103.65359,10.524083 c 0,1.04087 -0.13901,1.0666 -0.53611,1.06389 -0.7868,-0.005 -1.89061,0.0568 -2.39031,0.72247 -0.857825,1.14273 -0.802515,3.19645 -0.0454,4.28638 3.50098,5.039941 11.1739,5.039941 14.61249,-0.014 0.74761,-1.09881 0.83058,-3.11955 -0.0134,-4.26261 -0.49085,-0.66479 -1.30852,-0.73761 -2.36696,-0.73719 -0.3432,1.4e-4 -0.52917,-0.0176 -0.52917,-1.05851 -2.94811,-0.006 -6.20354,-0.0199 -8.73125,0 z"
       sodipodi:nodetypes="csassasccc" />
    <path
       id="path122"
       style="fill:#000000;stroke-width:0.127072"
       d="m 103.65359,38.307757 c 0,1.04087 -0.13901,1.0666 -0.53611,1.06389 -0.7868,-0.005 -1.89061,0.0568 -2.39031,0.72247 -0.857825,1.14273 -0.802515,3.19645 -0.0454,4.28638 3.50098,5.039941 11.1739,5.039941 14.61249,-0.014 0.74761,-1.09881 0.83058,-3.11955 -0.0134,-4.26261 -0.49085,-0.66479 -1.30852,-0.73761 -2.36696,-0.73719 -0.3432,1.4e-4 -0.52917,-0.0176 -0.52917,-1.05851 -2.94811,-0.006 -6.20354,-0.0199 -8.73125,0 z"
       sodipodi:nodetypes="csassasccc" />
    <path
       id="path124"
       style="fill:#000000;stroke-width:0.127072"
       d="m 103.65359,66.091423 c 0,1.04087 -0.13901,1.0666 -0.53611,1.06389 -0.7868,-0.005 -1.89061,0.0568 -2.39031,0.72247 -0.857825,1.14273 -0.802515,3.19645 -0.0454,4.28638 3.50098,5.039941 11.1739,5.039941 14.61249,-0.014 0.74761,-1.09881 0.83058,-3.11955 -0.0134,-4.26261 -0.49085,-0.66479 -1.30852,-0.73761 -2.36696,-0.73719 -0.3432,1.4e-4 -0.52917,-0.0176 -0.52917,-1.05851 -2.94811,-0.006 -6.20354,-0.0199 -8.73125,0 z"
       sodipodi:nodetypes="csassasccc" />
    <path
       id="path126"
       style="fill:#000000;stroke-width:0.127072"
       d="m 103.65359,93.875097 c 0,1.04087 -0.13901,1.0666 -0.53611,1.06389 -0.7868,-0.005 -1.89061,0.0568 -2.39031,0.72247 -0.857825,1.14273 -0.802515,3.196442 -0.0454,4.286366 3.50098,5.039937 11.1739,5.039937 14.61249,-0.014 0.74761,-1.098804 0.83058,-3.119536 -0.0134,-4.262596 -0.49085,-0.66479 -1.30852,-0.73761 -2.36696,-0.73719 -0.3432,1.4e-4 -0.52917,-0.0176 -0.52917,-1.05851 -2.94811,-0.006 -6.20354,-0.0199 -8.73125,0 z"
       sodipodi:nodetypes="csassasccc" />
    <rect
       style="fill:none;stroke:#000000;stroke-width:0.0441703"
       id="rect178"
       width="124.95583"
       height="124.95583"
       x="0.022085134"
       y="0.022085134" />
    <rect
       style="fill:none;stroke:#000000;stroke-width:0.0406367"
       id="rect1003"
       width="114.95937"
       height="114.95937"
       x="5.0203152"
       y="5.0203152" />
  </g>
</svg>
